# xmcd
#
# Track frame offsets: 
#        150
#        20488
#        39349
#        84415
#        110295
#        133610
#        160100
#        183698
#        213904
#        237782
#        265637
#
# Disc length: 3937 seconds
#
# Revision: 3
# Processed by: cddbd v1.5.2PL0 Copyright (c) Steve Scherf et al.
# Submitted via: ExactAudioCopy v1.0b3
#
DISCID=850f5f0b
DTITLE=Gov’t Mule - Shout! - CD2
DYEAR=2013
DGENRE=Rock
TTITLE0=World Boss - ft. Ben Harper
TTITLE1=Funny Little Tragedy - ft. Elvis Costello
TTITLE2=Stoop So Low - ft. Dr. John
TTITLE3=Captured - ft. Jim James
TTITLE4=Whisper In Your Soul - ft. Grace Potter
TTITLE5=Scared To Live - ft. Toots Hibbert
TTITLE6=No Reward - ft. Glenn Hughes
TTITLE7=Bring On The Music - ft. Ty Taylor
TTITLE8=Forsaken Savior - ft. Dave Matthews
TTITLE9=Done Got Wise - ft. Myles Kennedy
TTITLE10=When The World Gets Small - ft. Steve Winwood
EXTD=
EXTT0=
EXTT1=
EXTT2=
EXTT3=
EXTT4=
EXTT5=
EXTT6=
EXTT7=
EXTT8=
EXTT9=
EXTT10=
PLAYORDER=
